<svg xmlns="http://www.w3.org/2000/svg" xmlns:xlink="http://www.w3.org/1999/xlink" contentStyleType="text/css" height="509px" preserveAspectRatio="none" style="width:385px;height:509px;background:#FFFFFF;" version="1.1" viewBox="0 0 385 509" width="385px" zoomAndPan="magnify"><title>LVM Overview: PV, VG, and LV Relationships</title><defs/><g><text fill="#000000" font-family="sans-serif" font-size="14" font-weight="bold" lengthAdjust="spacing" textLength="352.6113" x="10" y="22.9951">LVM Overview: PV, VG, and LV Relationships</text><!--cluster Physical Volumes (PVs)--><g id="cluster_Physical Volumes (PVs)"><polygon fill="none" points="23.3105,53.2969,33.3105,43.2969,296.3105,43.2969,296.3105,150.2969,286.3105,160.2969,23.3105,160.2969,23.3105,53.2969" style="stroke:#181818;stroke-width:1;"/><line style="stroke:#181818;stroke-width:1;" x1="286.3105" x2="296.3105" y1="53.2969" y2="43.2969"/><line style="stroke:#181818;stroke-width:1;" x1="23.3105" x2="286.3105" y1="53.2969" y2="53.2969"/><line style="stroke:#181818;stroke-width:1;" x1="286.3105" x2="286.3105" y1="53.2969" y2="160.2969"/><text fill="#000000" font-family="sans-serif" font-size="14" font-weight="bold" lengthAdjust="spacing" textLength="184.6387" x="63.4912" y="69.292">Physical Volumes (PVs)</text></g><!--cluster Volume Group (VG)--><g id="cluster_Volume Group (VG)"><polygon fill="none" points="68.3105,219.2969,78.3105,209.2969,296.3105,209.2969,296.3105,316.2969,286.3105,326.2969,68.3105,326.2969,68.3105,219.2969" style="stroke:#181818;stroke-width:1;"/><line style="stroke:#181818;stroke-width:1;" x1="286.3105" x2="296.3105" y1="219.2969" y2="209.2969"/><line style="stroke:#181818;stroke-width:1;" x1="68.3105" x2="286.3105" y1="219.2969" y2="219.2969"/><line style="stroke:#181818;stroke-width:1;" x1="286.3105" x2="286.3105" y1="219.2969" y2="326.2969"/><text fill="#000000" font-family="sans-serif" font-size="14" font-weight="bold" lengthAdjust="spacing" textLength="152.1748" x="102.2231" y="235.292">Volume Group (VG)</text></g><!--cluster Logical Volumes (LVs)--><g id="cluster_Logical Volumes (LVs)"><polygon fill="none" points="17.3105,385.2969,27.3105,375.2969,367.3105,375.2969,367.3105,482.2969,357.3105,492.2969,17.3105,492.2969,17.3105,385.2969" style="stroke:#181818;stroke-width:1;"/><line style="stroke:#181818;stroke-width:1;" x1="357.3105" x2="367.3105" y1="385.2969" y2="375.2969"/><line style="stroke:#181818;stroke-width:1;" x1="17.3105" x2="357.3105" y1="385.2969" y2="385.2969"/><line style="stroke:#181818;stroke-width:1;" x1="357.3105" x2="357.3105" y1="385.2969" y2="492.2969"/><text fill="#000000" font-family="sans-serif" font-size="14" font-weight="bold" lengthAdjust="spacing" textLength="174.1729" x="101.2241" y="401.292">Logical Volumes (LVs)</text></g><g id="elem_PV1"><rect fill="#F1F1F1" height="60.8906" style="stroke:#181818;stroke-width:0.5;" width="111.0801" x="38.8105" y="83.2969"/><text fill="#000000" font-family="sans-serif" font-size="14" lengthAdjust="spacing" textLength="26.9268" x="80.8872" y="98.292">PV1</text><line style="stroke:#181818;stroke-width:0.5;" x1="39.8105" x2="148.8906" y1="103.5938" y2="103.5938"/><rect fill="none" height="6" style="stroke:#C82930;stroke-width:1;" width="6" x="46.8105" y="114.2422"/><text fill="#000000" font-family="sans-serif" font-size="14" lengthAdjust="spacing" textLength="68.8857" x="58.8105" y="120.5889">/dev/sda1</text><rect fill="none" height="6" style="stroke:#C82930;stroke-width:1;" width="6" x="46.8105" y="130.5391"/><text fill="#000000" font-family="sans-serif" font-size="14" lengthAdjust="spacing" textLength="85.0801" x="58.8105" y="136.8857">Size: 500GB</text></g><g id="elem_PV2"><rect fill="#F1F1F1" height="60.8906" style="stroke:#181818;stroke-width:0.5;" width="95.1934" x="184.8105" y="83.2969"/><text fill="#000000" font-family="sans-serif" font-size="14" lengthAdjust="spacing" textLength="26.9268" x="218.9438" y="98.292">PV2</text><line style="stroke:#181818;stroke-width:0.5;" x1="185.8105" x2="279.0039" y1="103.5938" y2="103.5938"/><rect fill="none" height="6" style="stroke:#C82930;stroke-width:1;" width="6" x="192.8105" y="114.2422"/><text fill="#000000" font-family="sans-serif" font-size="14" lengthAdjust="spacing" textLength="69.1934" x="204.8105" y="120.5889">/dev/sdb1</text><rect fill="none" height="6" style="stroke:#C82930;stroke-width:1;" width="6" x="192.8105" y="130.5391"/><text fill="#000000" font-family="sans-serif" font-size="14" lengthAdjust="spacing" textLength="64.9688" x="204.8105" y="136.8857">Size: 1TB</text></g><g id="elem_VG1"><rect fill="#F1F1F1" height="60.8906" style="stroke:#181818;stroke-width:0.5;" width="143.8516" x="110.3105" y="249.2969"/><text fill="#000000" font-family="sans-serif" font-size="14" lengthAdjust="spacing" textLength="29.333" x="167.5698" y="264.292">VG1</text><line style="stroke:#181818;stroke-width:0.5;" x1="111.3105" x2="253.1621" y1="269.5938" y2="269.5938"/><rect fill="none" height="6" style="stroke:#C82930;stroke-width:1;" width="6" x="118.3105" y="280.2422"/><text fill="#000000" font-family="sans-serif" font-size="14" lengthAdjust="spacing" textLength="106.1758" x="130.3105" y="286.5889">Name: vg_data</text><rect fill="none" height="6" style="stroke:#C82930;stroke-width:1;" width="6" x="118.3105" y="296.5391"/><text fill="#000000" font-family="sans-serif" font-size="14" lengthAdjust="spacing" textLength="117.8516" x="130.3105" y="302.8857">Total Size: 1.5TB</text></g><g id="elem_LV1"><rect fill="#F1F1F1" height="60.8906" style="stroke:#181818;stroke-width:0.5;" width="135.334" x="33.8105" y="415.2969"/><text fill="#000000" font-family="sans-serif" font-size="14" lengthAdjust="spacing" textLength="26.2842" x="88.3354" y="430.292">LV1</text><line style="stroke:#181818;stroke-width:0.5;" x1="34.8105" x2="168.1445" y1="435.5938" y2="435.5938"/><rect fill="none" height="6" style="stroke:#C82930;stroke-width:1;" width="6" x="41.8105" y="446.2422"/><text fill="#000000" font-family="sans-serif" font-size="14" lengthAdjust="spacing" textLength="109.334" x="53.8105" y="452.5889">Name: lv_home</text><rect fill="none" height="6" style="stroke:#C82930;stroke-width:1;" width="6" x="41.8105" y="462.5391"/><text fill="#000000" font-family="sans-serif" font-size="14" lengthAdjust="spacing" textLength="85.0801" x="53.8105" y="468.8857">Size: 800GB</text></g><g id="elem_LV2"><rect fill="#F1F1F1" height="60.8906" style="stroke:#181818;stroke-width:0.5;" width="146.6748" x="203.8105" y="415.2969"/><text fill="#000000" font-family="sans-serif" font-size="14" lengthAdjust="spacing" textLength="26.2842" x="264.0059" y="430.292">LV2</text><line style="stroke:#181818;stroke-width:0.5;" x1="204.8105" x2="349.4854" y1="435.5938" y2="435.5938"/><rect fill="none" height="6" style="stroke:#C82930;stroke-width:1;" width="6" x="211.8105" y="446.2422"/><text fill="#000000" font-family="sans-serif" font-size="14" lengthAdjust="spacing" textLength="120.6748" x="223.8105" y="452.5889">Name: lv_backup</text><rect fill="none" height="6" style="stroke:#C82930;stroke-width:1;" width="6" x="211.8105" y="462.5391"/><text fill="#000000" font-family="sans-serif" font-size="14" lengthAdjust="spacing" textLength="85.0801" x="223.8105" y="468.8857">Size: 700GB</text></g><!--link PV1 to VG1--><g id="link_PV1_VG1"><path codeLine="32" d="M103.8605,144.5769 C109.1205,159.5569 116.2205,177.7769 124.3105,193.2969 C134.4305,212.6969 144.5604,228.1608 156.0804,244.1308 " fill="none" id="PV1-to-VG1" style="stroke:#181818;stroke-width:1;"/><polygon fill="#181818" points="159.5905,248.9969,157.5694,239.3576,156.6654,244.9418,151.0812,244.0379,159.5905,248.9969" style="stroke:#181818;stroke-width:1;"/><text fill="#000000" font-family="sans-serif" font-size="13" lengthAdjust="spacing" textLength="74.2803" x="125.3105" y="189.3638">Part of VG1</text></g><!--link PV2 to VG1--><g id="link_PV2_VG1"><path codeLine="33" d="M223.2605,144.4969 C214.2205,174.1269 202.1704,213.6577 193.1304,243.3077 " fill="none" id="PV2-to-VG1" style="stroke:#181818;stroke-width:1;"/><polygon fill="#181818" points="191.3805,249.0469,197.8314,241.6047,192.8387,244.2642,190.1792,239.2716,191.3805,249.0469" style="stroke:#181818;stroke-width:1;"/><text fill="#000000" font-family="sans-serif" font-size="13" lengthAdjust="spacing" textLength="74.2803" x="213.3105" y="189.3638">Part of VG1</text></g><!--link VG1 to LV1--><g id="link_VG1_LV1"><path codeLine="34" d="M128.5805,310.4269 C117.6005,319.1669 107.5105,329.8069 101.3105,342.2969 C90.1605,364.7769 90.3822,387.656 93.6522,409.006 " fill="none" id="VG1-to-LV1" style="stroke:#181818;stroke-width:1;"/><polygon fill="#181818" points="94.5605,414.9369,97.1519,405.435,93.8036,409.9945,89.2441,406.6462,94.5605,414.9369" style="stroke:#181818;stroke-width:1;"/><text fill="#000000" font-family="sans-serif" font-size="13" lengthAdjust="spacing" textLength="130.9902" x="102.3105" y="355.3638">Provides storage for</text></g><!--link VG1 to LV2--><g id="link_VG1_LV2"><path codeLine="35" d="M212.6105,310.3569 C221.3705,319.9669 230.4105,331.0669 237.3105,342.2969 C251.4105,365.2469 260.2861,388.291 267.0561,409.501 " fill="none" id="VG1-to-LV2" style="stroke:#181818;stroke-width:1;"/><polygon fill="#181818" points="268.8805,415.2169,269.9545,405.4267,267.3602,410.4536,262.3333,407.8593,268.8805,415.2169" style="stroke:#181818;stroke-width:1;"/><text fill="#000000" font-family="sans-serif" font-size="13" lengthAdjust="spacing" textLength="130.9902" x="246.3105" y="355.3638">Provides storage for</text></g><!--SRC=[TL6nReCm5DpvYYUcL0fDY1IrOkZGXOMsg8syHWOxu0Huo3QksYh_NZkX2L1bV7VlpdVFMkYAGq9UuCrmQGJ_Z20bSo3n76Z3B0FllA9QOADAqIhFQv1nyDFoIucSLa2mwcgkO9OITUV3ZmU0sPxdsjg4fn4WW0NZPg4O3VlvGtpp2DRBPVniaUDGj9gAih4et9mbnxyevmGGI-nQc95ud8B4rnIljBO6fjWogccFRL3R5htr_Nfgdc0nhfbCQoPa-a1bjYNMV9JwyN_LP53r8ineVkZQaVJX8hMft563uEbKAxBVGAK6tBdHzzpjRd4ESvnBwpY9HZ3RHscKjE2mGpbSMjrS-WK0]--></g></svg>